# xmcd
#
# Track frame offsets:
#	150
#	30085
#	52873
#	71539
#	98947
#	125866
#	143800
#	166342
#	190855
#	219944
#	247982
#
# Disc length: 3831 seconds
#
# Revision: 15
# Processed by: cddbd v1.5.2PL0 Copyright (c) Steve Scherf et al.
# Submitted via: Jack! The Knife 20 Magnifico
#
DISCID=900ef50b
DTITLE=Gamma Ray - Powerplant
DYEAR=1999
DGENRE=Metal
TTITLE0=Anywhere In The Galaxy
TTITLE1=Razorblade Sigh
TTITLE2=Send Me A Sign
TTITLE3=Strangers In The Night
TTITLE4=Gardens Of The Sinner
TTITLE5=Short As Hell
TTITLE6=It's A Sin
TTITLE7=Heavy Metal Universe
TTITLE8=Wings Of Destiny
TTITLE9=Hand Of Fate
TTITLE10=Armageddon
EXTD=Kai Hansen and Dirk Schlachter
EXTT0=Kay Hansen
EXTT1=Kay Hansen
EXTT2=Henjo Richter
EXTT3=Dan Zimmermann
EXTT4=Zimmermann, Hansen
EXTT5=Kay Hansen
EXTT6=Lowe, Tennant
EXTT7=Kay Hansen
EXTT8=Henjo Richter
EXTT9=Dirk Schlächter
EXTT10=Kay Hansen
PLAYORDER=
